<?xml version="1.0" encoding="UTF-8"?>
<svg width="23px" height="20px" viewBox="0 0 23 20" version="1.1" xmlns="http://www.w3.org/2000/svg" xmlns:xlink="http://www.w3.org/1999/xlink">
    <!-- Generator: Sketch 52.2 (67145) - http://www.bohemiancoding.com/sketch -->
    <title>Group 5</title>
    <desc>Created with Sketch.</desc>
    <g id="Page-1" stroke="none" stroke-width="1" fill="none" fill-rule="evenodd">
        <g id="New-Project-Copy-3" transform="translate(-36.000000, -58.000000)">
            <g id="Group-5" transform="translate(36.000000, 58.000000)">
                <path d="M10.5804902,2.40948117 C11.119215,1.87706386 11.139871,0.992417174 10.6266267,0.433567499 C10.1133825,-0.125282176 9.26059308,-0.146709838 8.72186832,0.385707475 C3.17961871,5.94800395 0.400935614,8.73722761 0.385819046,8.75337844 C-0.145463861,9.32993529 -0.125593473,10.244106 0.4302008,10.7952358 L8.72179381,19.1126788 C9.25965923,19.6460302 10.112482,19.6260825 10.6266267,19.0681242 C11.1407715,18.510166 11.1215421,17.6254847 10.5836766,17.0921333 L3.73244595,10.1007216 C3.54196404,9.90634231 3.54192878,9.59531487 3.73236662,9.40089239 L10.5804902,2.40948117 Z" id="Back" fill="#FFFFFF" fill-rule="nonzero" transform="translate(5.500000, 9.750000) scale(-1, 1) rotate(-180.000000) translate(-5.500000, -9.750000) "></path>
                <path d="M2,9.75 L21,10" id="Line-6" stroke="#FFFFFF" stroke-width="3" stroke-linecap="round"></path>
            </g>
        </g>
    </g>
</svg>