<?xml version="1.0" encoding="UTF-8"?>
<svg width="15px" height="8px" viewBox="0 0 15 8" version="1.1" xmlns="http://www.w3.org/2000/svg" xmlns:xlink="http://www.w3.org/1999/xlink">
    <!-- Generator: Sketch 52.3 (67297) - http://www.bohemiancoding.com/sketch -->
    <title>Back</title>
    <desc>Created with Sketch.</desc>
    <g id="Page-1" stroke="none" stroke-width="1" fill="none" fill-rule="evenodd">
        <g id="New-Project-Copy-7" transform="translate(-319.000000, -399.000000)" fill="#000000" fill-rule="nonzero">
            <g id="Group-2" transform="translate(31.000000, 365.000000)">
                <path d="M298.785811,32.6614409 C299.177611,32.2742283 299.192633,31.6308489 298.819365,31.2244127 C298.446096,30.8179766 297.825886,30.8023928 297.434086,31.1896054 C293.403359,35.234912 291.382499,37.2634383 291.371505,37.2751843 C290.985117,37.6944984 290.999568,38.3593498 291.403782,38.7601715 L297.434032,44.8092209 C297.825207,45.1971129 298.445441,45.1826054 298.819365,44.7768176 C299.193288,44.3710298 299.179303,43.7276252 298.788128,43.3397333 L293.898923,38.3504909 C293.708441,38.1561116 293.708406,37.8450842 293.898843,37.6506617 L298.785811,32.6614409 Z" id="Back" transform="translate(295.090909, 38.000000) scale(-1, 1) rotate(-90.000000) translate(-295.090909, -38.000000) "></path>
            </g>
        </g>
    </g>
</svg>