<svg xmlns="http://www.w3.org/2000/svg" data-name="Layer 1" viewBox="0 0 512 640" x="0px" y="0px"><title>Edit</title><path d="M387.6,97.2a50.035,50.035,0,0,0-70.7,0L299.2,115h0L110.8,303.3l-.4.4c-.1.1-.1.2-.2.2-.2.3-.5.6-.7.9,0,.1-.1.1-.1.2-.2.3-.3.5-.5.8-.1.1-.1.2-.2.3-.1.3-.2.5-.3.8,0,.1-.1.1-.1.2L66.5,432.8A9.847,9.847,0,0,0,68.9,443a10.068,10.068,0,0,0,7.1,2.9,11.851,11.851,0,0,0,3.2-.5l125.6-41.9c.1,0,.1,0,.2-.1a3.552,3.552,0,0,0,.9-.4.349.349,0,0,0,.2-.1c.3-.2.7-.4,1-.6h0c.3-.2.6-.5.9-.7.1-.1.2-.1.2-.2.1-.1.3-.2.4-.4L414.7,194.9a50.035,50.035,0,0,0,0-70.7ZM201.6,380,132,310.4,306.2,136.2l69.6,69.6Zm-79.4-51.1L183,389.7,91.7,420.1Zm278.4-148L390,191.6,320.4,122l10.7-10.7a30,30,0,0,1,42.4,0l27.2,27.2A30.088,30.088,0,0,1,400.6,180.9Z"/><text x="0" y="527" fill="#000000" font-size="5px" font-weight="bold" font-family="'Helvetica Neue', Helvetica, Arial-Unicode, Arial, Sans-serif">Created by Kavyashri</text><text x="0" y="532" fill="#000000" font-size="5px" font-weight="bold" font-family="'Helvetica Neue', Helvetica, Arial-Unicode, Arial, Sans-serif">from the Noun Project</text></svg>