<?xml version="1.0" encoding="UTF-8"?>
<svg width="33px" height="33px" viewBox="0 0 33 33" version="1.1" xmlns="http://www.w3.org/2000/svg" xmlns:xlink="http://www.w3.org/1999/xlink">
    <!-- Generator: Sketch 52.2 (67145) - http://www.bohemiancoding.com/sketch -->
    <title>Fill 1</title>
    <desc>Created with Sketch.</desc>
    <g id="Page-1" stroke="none" stroke-width="1" fill="none" fill-rule="evenodd" opacity="0.94">
        <g id="iPhone-XS-Copy-9" transform="translate(-253.000000, -319.000000)" fill="#FEFEFE">
            <g id="Group-3" transform="translate(253.000000, 319.000000)">
                <path d="M8.64594844,12.3764094 C8.62515156,13.3811906 9.49105781,14.2639406 10.5625266,14.2256125 C11.6243703,14.1878 12.4000422,13.3858312 12.4029641,12.3131594 C12.4057141,11.3692219 11.5423859,10.3788781 10.3641828,10.4634406 C9.55035469,10.5218781 8.59094844,11.3023625 8.64594844,12.3764094 M22.7244016,10.4708312 C21.7665422,10.4180656 20.8208859,11.2471906 20.8214016,12.3363625 C20.8219172,13.3848 21.6847297,14.21255 22.6651047,14.2292219 C23.7154328,14.2470969 24.5541828,13.3835969 24.5907922,12.4063156 C24.6286047,11.3989562 23.7585734,10.4314719 22.7244016,10.4708312 M16.6238703,21.9495031 C17.2218234,21.9495031 17.8196047,21.9495031 18.4173859,21.9495031 C20.4652766,21.9495031 22.5129953,21.9500187 24.5607141,21.9489875 C25.0039797,21.9488156 25.3766047,21.6188156 25.4209484,21.1939406 C25.4790422,20.6384406 25.0876828,20.2087531 24.5203234,20.2087531 C19.2704016,20.2082375 14.0203078,20.2084094 8.77038594,20.2084094 C8.71538594,20.2084094 8.66004219,20.2046281 8.60555781,20.2097844 C8.34843281,20.2335031 8.12293281,20.33405 7.96738594,20.5404719 C7.74893281,20.8302531 7.74016719,21.1650656 7.88213594,21.4792531 C8.02668281,21.7994562 8.31560469,21.9481281 8.66657344,21.9483 C11.3189484,21.9503625 13.9714953,21.9495031 16.6238703,21.9495031 M15.6336984,3.4375e-05 L17.3661984,3.4375e-05 C17.4191359,0.01155 17.4713859,0.02701875 17.5246672,0.034065625 C18.3068703,0.137190625 19.1004172,0.186346875 19.8693859,0.350659375 C23.8995109,1.21158125 27.1744172,3.2916125 29.6714172,6.56720625 C31.4712922,8.928425 32.5338234,11.5997062 32.8827297,14.5509719 C32.9253547,14.9115656 32.9611047,15.2728469 32.9999484,15.6337844 L32.9999484,17.3662844 C32.9877453,17.4331437 32.9726203,17.4996594 32.9635109,17.5668625 C32.8610734,18.3353156 32.8108859,19.1147687 32.6493234,19.8705031 C31.7875422,23.9004562 29.7076828,27.1751906 26.4319172,29.6720188 C24.0706984,31.4718937 21.3992453,32.5342531 18.4478078,32.8828156 C18.0877297,32.9254406 17.7267922,32.9611906 17.3661984,33.0000344 L15.6336984,33.0000344 C15.5809328,32.9885187 15.5286828,32.97305 15.4752297,32.9660031 C14.6931984,32.8627062 13.8996516,32.81355 13.1305109,32.6492375 C9.10794844,31.7903781 5.83733906,29.715675 3.34102656,26.4491906 C1.53376094,24.0843625 0.467104688,21.4075812 0.117339062,18.448925 C0.0747140625,18.0885031 0.0389640625,17.7272219 -5.15625e-05,17.3662844 C-5.15625e-05,16.7887844 -5.15625e-05,16.2112844 -5.15625e-05,15.6337844 C0.0123234375,15.566925 0.0274484375,15.5004094 0.0365578125,15.4330344 C0.138823437,14.6647531 0.189182812,13.8853 0.350573437,13.1295656 C1.20719844,9.1223 3.27004219,5.85994063 6.51899531,3.36551875 C8.89155781,1.54381562 11.5789953,0.468909375 14.5520891,0.11708125 C14.9121672,0.07445625 15.2731047,0.038878125 15.6336984,3.4375e-05" id="Fill-1"></path>
            </g>
        </g>
    </g>
</svg>