<?xml version="1.0" encoding="UTF-8"?>
<svg width="33px" height="33px" viewBox="0 0 33 33" version="1.1" xmlns="http://www.w3.org/2000/svg" xmlns:xlink="http://www.w3.org/1999/xlink">
    <!-- Generator: Sketch 52.2 (67145) - http://www.bohemiancoding.com/sketch -->
    <title>Fill 1</title>
    <desc>Created with Sketch.</desc>
    <g id="Page-1" stroke="none" stroke-width="1" fill="none" fill-rule="evenodd" opacity="0.94">
        <g id="iPhone-XS-Copy-9" transform="translate(-253.000000, -155.000000)" fill="#FEFEFE">
            <path d="M261.645828,167.371391 C261.622969,168.379437 262.489734,169.262016 263.557594,169.225578 C264.620812,169.189484 265.398547,168.390781 265.402672,167.318109 C265.406281,166.326047 264.496891,165.404109 263.431266,165.462547 C262.439891,165.517031 261.633969,166.338766 261.645828,167.371391 M273.835547,167.337703 C273.771266,168.385453 274.688047,169.221797 275.687156,169.229703 C276.714109,169.237781 277.565922,168.37875 277.591187,167.384453 C277.616453,166.396687 276.760859,165.466156 275.723078,165.460828 C274.766422,165.455844 273.771609,166.246813 273.835547,167.337703 M260.803297,179.218563 C260.803469,179.651688 261.020375,179.965703 261.367563,180.069172 C261.782297,180.19275 262.170906,180.056797 262.390734,179.702906 C262.499188,179.528625 262.593719,179.345578 262.697187,179.168203 C263.265406,178.194875 263.986938,177.354234 264.909047,176.703344 C266.060609,175.890203 267.368234,175.511906 268.760078,175.408953 C269.577516,175.348453 270.390141,175.396234 271.201047,175.538891 C272.265125,175.726234 273.247047,176.108141 274.137875,176.712281 C275.076141,177.348563 275.837891,178.162219 276.455094,179.112344 C276.611672,179.353484 276.752781,179.607859 276.934625,179.828547 C277.169234,180.113 277.598578,180.188625 277.935281,180.044766 C278.254109,179.908297 278.431656,179.594797 278.429422,179.213922 C278.427875,178.947344 278.277141,178.752609 278.154078,178.539484 C277.542031,177.480047 276.752781,176.563609 275.813656,175.79275 C274.293078,174.544938 272.535656,173.841797 270.567172,173.717703 C269.311281,173.638641 268.058656,173.65325 266.822875,173.966578 C265.509922,174.299328 264.325188,174.878203 263.296344,175.753906 C262.426828,176.493828 261.705125,177.366438 261.147734,178.365891 C260.993734,178.641922 260.765656,178.897844 260.803297,179.218563 M268.63375,155 L270.36625,155 C270.419016,155.011516 270.471266,155.026984 270.524719,155.034031 C271.306922,155.137328 272.100469,155.186313 272.869438,155.350625 C276.899391,156.211547 280.174297,158.291578 282.671469,161.567172 C284.471344,163.928391 285.533703,166.599672 285.882781,169.550938 C285.925406,169.911531 285.961156,170.272812 286,170.63375 L286,172.36625 C285.987797,172.433109 285.9725,172.499625 285.963563,172.567 C285.861125,173.335281 285.810938,174.114906 285.649375,174.870469 C284.787594,178.900422 282.707562,182.175156 279.431969,184.671984 C277.070578,186.471859 274.399297,187.534219 271.447859,187.882953 C271.087781,187.925406 270.726844,187.961156 270.36625,188 L268.63375,188 C268.580984,187.988484 268.528734,187.973016 268.475281,187.965969 C267.693078,187.862672 266.899531,187.813516 266.130562,187.649203 C262.107828,186.790516 258.837219,184.715641 256.341078,181.449156 C254.533813,179.084328 253.467156,176.407547 253.117219,173.448891 C253.074594,173.088469 253.039016,172.727188 253,172.36625 C253,171.78875 253,171.21125 253,170.63375 C253.012375,170.566891 253.0275,170.500375 253.036438,170.433 C253.138875,169.664719 253.189063,168.885266 253.350625,168.129531 C254.20725,164.122266 256.270094,160.859906 259.518875,158.365484 C261.891437,156.543781 264.578875,155.469047 267.552141,155.117047 C267.912219,155.074422 268.273156,155.038844 268.63375,155" id="Fill-1"></path>
        </g>
    </g>
</svg>