<?xml version="1.0" encoding="UTF-8"?>
<svg width="33px" height="33px" viewBox="0 0 33 33" version="1.1" xmlns="http://www.w3.org/2000/svg" xmlns:xlink="http://www.w3.org/1999/xlink">
    <!-- Generator: Sketch 52.2 (67145) - http://www.bohemiancoding.com/sketch -->
    <title>Group 3</title>
    <desc>Created with Sketch.</desc>
    <defs>
        <polygon id="path-1" points="0 0 33 0 33 33 0 33"></polygon>
    </defs>
    <g id="Page-1" stroke="none" stroke-width="1" fill="none" fill-rule="evenodd" opacity="0.94">
        <g id="iPhone-XS-Copy-9" transform="translate(-90.000000, -155.000000)">
            <g id="Group-3" transform="translate(90.000000, 155.000000)">
                <mask id="mask-2" fill="white">
                    <use xlink:href="#path-1"></use>
                </mask>
                <g id="Clip-2"></g>
                <path d="M8.64580626,12.3703334 C8.62240509,13.3791991 9.48944556,14.2615893 10.5565388,14.2256711 C11.6201491,14.1897529 12.398374,13.3919337 12.40251,12.3191771 C12.4063195,11.3180392 11.4909529,10.4261797 10.4529206,10.4575265 C9.57967611,10.4839753 8.58986114,11.2977944 8.64580626,12.3703334 M22.732003,10.4708053 C21.7651539,10.41486 20.8242092,11.2499035 20.8213793,12.3286465 C20.8187671,13.3873623 21.6887463,14.2184875 22.6782348,14.2293718 C23.7145255,14.2408003 24.5505459,13.3873623 24.5904911,12.4138706 C24.6322867,11.3971681 23.7569742,10.434996 22.732003,10.4708053 M16.6640259,26.3472982 C17.6326165,26.3662369 18.5092351,26.2890672 19.3749695,26.0718166 C20.8291072,25.7067572 22.1164979,25.0325836 23.2197269,24.0204526 C24.1041822,23.2089192 24.7795508,22.2336859 25.3471651,21.1821537 C25.5548369,20.7976114 25.4141034,20.278648 25.0402289,20.0575878 C24.6375111,19.8194394 24.0554207,19.8493712 23.7188793,20.5032999 C23.3170322,21.2841396 22.7888189,21.9699593 22.1656948,22.5933032 C20.8427125,23.9166164 19.2084403,24.4975115 17.3893532,24.6294292 C16.3573073,24.7043132 15.3327715,24.6136469 14.3275009,24.3393626 C13.2237277,24.0380852 12.2324978,23.5294618 11.3728586,22.773656 C10.5766747,22.0735779 9.93482964,21.247133 9.39148719,20.3385116 C9.14942116,19.9338334 8.59595633,19.7975619 8.21794584,20.0216697 C7.8163165,20.2597093 7.66328375,20.7934754 7.90763548,21.2100175 C8.14665391,21.6175257 8.40591708,22.0149115 8.67954748,22.4001069 C9.50751344,23.5654889 10.5503348,24.4925047 11.802134,25.1873584 C12.5201689,25.5859414 13.2793463,25.8945113 14.0697615,26.085422 C14.9421353,26.296142 15.8396517,26.3951891 16.6640259,26.3472982 M15.6337214,0 L17.3662786,0 C17.4190673,0.0115373579 17.4713117,0.0268842207 17.5247535,0.0339590157 C18.3068967,0.137251022 19.1004684,0.186339214 19.8694416,0.3505833 C23.8994492,1.21153142 27.1744154,3.29152113 29.6713744,6.56715118 C31.4713051,8.9283912 32.5337181,11.5997249 32.8827765,14.5510028 C32.9254428,14.9114909 32.9611432,15.2728496 33,15.633773 L33,17.366227 C32.9877008,17.4331655 32.9725717,17.4996685 32.9635377,17.5669335 C32.8611168,18.3353651 32.8109403,19.1148986 32.649309,19.8704867 C31.7876018,23.9005076 29.707619,27.1752669 26.4318909,29.6721253 C24.0706587,31.4719531 21.3992249,32.5342608 18.4478479,32.8829938 C18.0877964,32.9254425 17.7267654,32.961143 17.3662786,33 L15.6337214,33 C15.5809327,32.9884626 15.5286883,32.9731158 15.4752465,32.966041 C14.6931033,32.862749 13.8995316,32.8135519 13.1305584,32.6493079 C9.10784327,31.7905366 5.83723078,29.7156625 3.34103368,26.4492841 C1.53381048,24.0843434 0.467152611,21.4075676 0.117332366,18.4489972 C0.074666051,18.0885091 0.0389656651,17.7271504 0,17.366227 C0,16.7887061 0,16.2112939 0,15.633773 C0.0122992183,15.5668345 0.0275371879,15.5004403 0.0364622844,15.4330665 C0.138883209,14.6647438 0.189168508,13.8852102 0.350690986,13.1295133 C1.20717372,9.12224058 3.27017712,5.85988938 6.51891223,3.36542553 C8.8914641,1.5438291 11.5788977,0.468895639 14.5520433,0.117115067 C14.9122036,0.0744486113 15.2731258,0.0388569506 15.6337214,0" id="Fill-1" fill="#FEFEFE" mask="url(#mask-2)"></path>
            </g>
        </g>
    </g>
</svg>